<svg xmlns="http://www.w3.org/2000/svg" viewBox="0 0 50.72 50.72"><defs><style>.cls-1{fill:#fff;}</style></defs><title>Ingresar</title><g id="Capa_2" data-name="Capa 2"><g id="Capa_1-2" data-name="Capa 1"><path class="cls-1" d="M25.36,50.72A25.36,25.36,0,1,1,50.72,25.36,25.37,25.37,0,0,1,25.36,50.72ZM41.84,23.87l-3-3-11.95-12a2.08,2.08,0,0,0-1.49-.6,2,2,0,0,0-1.48.6l-3,3a2.09,2.09,0,0,0-.59,1.49,2.07,2.07,0,0,0,.59,1.48l6.24,6.24H10.57a2.13,2.13,0,0,0-2.12,2.12v4.22a2.13,2.13,0,0,0,2.12,2.12H27.14L20.9,35.83a2.11,2.11,0,0,0-.63,1.48,2.15,2.15,0,0,0,.63,1.49l3,3a2,2,0,0,0,1.48.6,2.08,2.08,0,0,0,1.49-.6l12-11.95,3-3a2.18,2.18,0,0,0,0-3Z"/></g></g></svg>