<svg xmlns="http://www.w3.org/2000/svg" viewBox="0 0 82.88 82.88"><defs><style>.cls-1{fill:#ffffff;}</style></defs><title>Regresar</title><g id="Capa_2" data-name="Capa 2"><g id="Capa_1-2" data-name="Capa 1"><path class="cls-1" d="M2,36.83a1.89,1.89,0,0,1-1.39-.57A1.88,1.88,0,0,1,0,34.86V2A1.86,1.86,0,0,1,.58.58,1.86,1.86,0,0,1,2,0h7.9a1.86,1.86,0,0,1,1.39.58A1.86,1.86,0,0,1,11.84,2V14.8a40,40,0,0,1,13.73-10A41.11,41.11,0,0,1,42.43,1.32,39.41,39.41,0,0,1,62.9,6.82a40.74,40.74,0,0,1,20,35.36,39.26,39.26,0,0,1-5.51,20.39,41.64,41.64,0,0,1-14.8,14.8A39.42,39.42,0,0,1,42.1,82.88a39.76,39.76,0,0,1-14.8-2.8,40.61,40.61,0,0,1-12.5-7.72,2.06,2.06,0,0,1-.66-1.48,2.38,2.38,0,0,1,.5-1.48l5.59-5.6a2.23,2.23,0,0,1,2.79,0,27.13,27.13,0,0,0,8.72,5.35,28.95,28.95,0,0,0,35.44-12.5A28.54,28.54,0,0,0,71,42.1,28.79,28.79,0,0,0,42.1,13.16a27.77,27.77,0,0,0-13.16,3.2A30.48,30.48,0,0,0,18.75,25H34.86a1.91,1.91,0,0,1,1.4.57,1.93,1.93,0,0,1,.58,1.4v7.89a2,2,0,0,1-2,2Z"/></g></g></svg>