<svg xmlns="http://www.w3.org/2000/svg" viewBox="0 0 96.43 75"><defs><style>.cls-1{fill:#fff;}</style></defs><title>Chat</title><g id="Capa_2" data-name="Capa 2"><g id="Capa_1-2" data-name="Capa 1"><path class="cls-1" d="M34.82,53.57a42.71,42.71,0,0,1-18.63-4.18A29.53,29.53,0,0,1,1.34,53.57a1.3,1.3,0,0,1-1.22-.8,1.33,1.33,0,0,1,.25-1.46,37.69,37.69,0,0,0,6-9.12A22.72,22.72,0,0,1,0,26.79C0,12,15.59,0,34.82,0S69.64,12,69.64,26.79,54.06,53.57,34.82,53.57ZM96.06,72.74a1.34,1.34,0,0,1-1,2.26,29.43,29.43,0,0,1-14.85-4.19A42.3,42.3,0,0,1,61.61,75c-14.43,0-26.82-6.76-32.1-16.39a51.33,51.33,0,0,0,5.31.32C57,58.93,75,44.51,75,26.79a25.1,25.1,0,0,0-.22-3.37c12.69,4,21.65,13.59,21.65,24.79a22.7,22.7,0,0,1-6.36,15.41A37.21,37.21,0,0,0,96.06,72.74Z"/></g></g></svg>