<svg xmlns="http://www.w3.org/2000/svg" viewBox="0 0 165.85 165.85"><defs><style>.cls-1{opacity:0.7;}.cls-2{fill:lime;}</style></defs><title>Verdadero</title><g id="Capa_2" data-name="Capa 2"><g id="Capa_1-2" data-name="Capa 1"><g class="cls-1"><path class="cls-2" d="M154.65,124.39a83.77,83.77,0,0,1-30.26,30.26,80.38,80.38,0,0,1-41.46,11.2,80.39,80.39,0,0,1-41.47-11.2A83.84,83.84,0,0,1,11.2,124.39,80.38,80.38,0,0,1,0,82.93,80.39,80.39,0,0,1,11.2,41.46,83.92,83.92,0,0,1,41.46,11.2,80.39,80.39,0,0,1,82.93,0a80.38,80.38,0,0,1,41.46,11.2,83.84,83.84,0,0,1,30.26,30.26,80.39,80.39,0,0,1,11.2,41.47A80.38,80.38,0,0,1,154.65,124.39ZM134.76,65.2a4.88,4.88,0,0,0,0-7.35l-7.36-7.69a5.26,5.26,0,0,0-7.69,0L69.55,100.31,46.14,76.91a5.26,5.26,0,0,0-7.69,0L31.1,84.6a4.89,4.89,0,0,0,0,7.36l34.77,34.77a4.89,4.89,0,0,0,7.36,0Z"/></g></g></g></svg>