<svg xmlns="http://www.w3.org/2000/svg" viewBox="0 0 170.29 170.29"><defs><style>.cls-1{opacity:0.7;}.cls-2{fill:red;}</style></defs><title>False</title><g id="Capa_2" data-name="Capa 2"><g id="Capa_1-2" data-name="Capa 1"><g class="cls-1"><path class="cls-2" d="M158.79,127.72a86.17,86.17,0,0,1-31.07,31.07,82.54,82.54,0,0,1-42.58,11.5,82.53,82.53,0,0,1-42.57-11.5A86.17,86.17,0,0,1,11.5,127.72,82.54,82.54,0,0,1,0,85.14,82.53,82.53,0,0,1,11.5,42.57,86.17,86.17,0,0,1,42.57,11.5,82.53,82.53,0,0,1,85.14,0a82.54,82.54,0,0,1,42.58,11.5,86.17,86.17,0,0,1,31.07,31.07,82.53,82.53,0,0,1,11.5,42.57A82.54,82.54,0,0,1,158.79,127.72ZM74,107A15.78,15.78,0,1,0,96.3,129.26,15.78,15.78,0,1,0,74,107Zm-1.2-14.6A3.61,3.61,0,0,0,74,94.93a4,4,0,0,0,2.91,1.2H93.38a4,4,0,0,0,2.92-1.2,3.61,3.61,0,0,0,1.2-2.58l2.75-46.69a4.41,4.41,0,0,0-1.2-3.26,4,4,0,0,0-2.92-1.2h-22a4,4,0,0,0-2.92,1.2A4.41,4.41,0,0,0,70,45.66Z"/></g></g></g></svg>