<svg xmlns="http://www.w3.org/2000/svg" viewBox="0 0 74.67 58.16"><defs><style>.cls-1{fill:#fff;}</style></defs><title>Home</title><g id="Capa_2" data-name="Capa 2"><g id="Capa_1-2" data-name="Capa 1"><path class="cls-1" d="M74.2,28.56a1.7,1.7,0,0,1,.46,1,1.64,1.64,0,0,1-.33,1.17l-3.24,4a1.23,1.23,0,0,1-1,.52,1.92,1.92,0,0,1-1.17-.39L38.37,9.87a1.71,1.71,0,0,0-1-.39,1.75,1.75,0,0,0-1,.39L5.79,34.92a1.92,1.92,0,0,1-1.17.39,1.23,1.23,0,0,1-1-.52l-3.25-4a1.77,1.77,0,0,1,.13-2.21l33-27.13A5.85,5.85,0,0,1,37.33,0a6.39,6.39,0,0,1,4,1.43L52.91,11V1.56A1.51,1.51,0,0,1,53.37.45,1.5,1.5,0,0,1,54.47,0h7.27a1.5,1.5,0,0,1,1.1.45,1.51,1.51,0,0,1,.46,1.11v18ZM63.3,36.48a1.8,1.8,0,0,0-.52-1.3l-24.41-20a1.71,1.71,0,0,0-1-.39,1.75,1.75,0,0,0-1,.39l-24.4,20a1.76,1.76,0,0,0-.52,1.3V55a3.11,3.11,0,0,0,3.11,3.12H29.54A1.54,1.54,0,0,0,31.1,56.6V42.06a1.47,1.47,0,0,1,.46-1.1,1.51,1.51,0,0,1,1.1-.46H42a1.55,1.55,0,0,1,1.55,1.56V56.6A1.53,1.53,0,0,0,44,57.71a1.5,1.5,0,0,0,1.1.45H60.18A3.11,3.11,0,0,0,63.3,55Z"/></g></g></svg>