<?xml version="1.0" encoding="utf-8"?>
<!-- Generator: Adobe Illustrator 23.1.0, SVG Export Plug-In . SVG Version: 6.00 Build 0)  -->
<svg version="1.1" id="Capa_1" xmlns="http://www.w3.org/2000/svg" xmlns:xlink="http://www.w3.org/1999/xlink" x="0px" y="0px"
	 viewBox="0 0 547 771" style="enable-background:new 0 0 547 771;" xml:space="preserve">
<style type="text/css">
	.st0{fill:#3F88FB;}
	.st1{fill:#4D4D4D;}
	.st2{fill:#606060;}
</style>
<g>
	<g>
		<path class="st0" d="M41.2,697.6h-9l-2.1,6.8H28l7.8-24.7h1.8l7.7,24.7h-2.1L41.2,697.6z M32.8,695.8h7.9l-3.9-12.7h-0.1
			L32.8,695.8z"/>
		<path class="st0" d="M64,704.5h-2l-11-20.6l-0.1,0v20.6h-2v-24.7h2l11,20.6l0.1,0v-20.6h2V704.5z"/>
		<path class="st0" d="M82.8,681.6h-6.9v22.9h-2v-22.9H67v-1.8h15.8V681.6z"/>
		<path class="st0" d="M88.6,704.5h-2v-24.7h2V704.5z"/>
		<path class="st0" d="M96.5,694.3v10.2h-2v-24.7h7.3c2.2,0,3.8,0.7,5,2c1.2,1.3,1.8,3.1,1.8,5.2c0,2.2-0.6,3.9-1.8,5.3
			c-1.2,1.3-2.9,2-5,2H96.5z M96.5,692.5h5.3c1.6,0,2.8-0.5,3.6-1.5c0.8-1,1.2-2.3,1.2-3.9c0-1.6-0.4-2.9-1.2-3.9
			c-0.8-1-2-1.5-3.6-1.5h-5.3V692.5z"/>
		<path class="st0" d="M115.1,704.5h-2v-24.7h2V704.5z"/>
		<path class="st0" d="M123,693.3v11.2h-2v-24.6h7.1c2.2,0,3.9,0.6,5.1,1.7s1.8,2.9,1.8,5.1c0,1.3-0.3,2.5-0.9,3.5
			c-0.6,1-1.5,1.8-2.6,2.3c1.3,0.4,2.2,1.1,2.7,2.1c0.5,1,0.8,2.2,0.8,3.7v2.3c0,0.8,0.1,1.5,0.2,2.1s0.4,1.1,0.7,1.5v0.4h-2.1
			c-0.3-0.4-0.6-1-0.7-1.7c-0.1-0.7-0.2-1.5-0.2-2.3v-2.3c0-1.5-0.4-2.7-1.1-3.6c-0.8-0.9-1.8-1.3-3.1-1.3H123z M123,691.6h4.8
			c1.7,0,3-0.4,3.8-1.3c0.8-0.9,1.2-2.1,1.2-3.6c0-1.6-0.4-2.9-1.2-3.7c-0.8-0.9-2-1.3-3.6-1.3h-5V691.6z"/>
		<path class="st0" d="M151.2,697.6h-9l-2.1,6.8H138l7.8-24.7h1.8l7.7,24.7h-2.1L151.2,697.6z M142.8,695.8h7.9l-3.9-12.7h-0.1
			L142.8,695.8z"/>
		<path class="st0" d="M170.3,681.6h-6.9v22.9h-2v-22.9h-6.9v-1.8h15.8V681.6z"/>
		<path class="st0" d="M185.6,692.6h-9.7v10.2H187v1.7h-13.2v-24.7h13.1v1.8h-11v9.2h9.7V692.6z"/>
		<path class="st0" d="M192.8,693.3v11.2h-2v-24.6h7.1c2.2,0,3.9,0.6,5.1,1.7s1.8,2.9,1.8,5.1c0,1.3-0.3,2.5-0.9,3.5
			c-0.6,1-1.5,1.8-2.6,2.3c1.3,0.4,2.2,1.1,2.7,2.1c0.5,1,0.8,2.2,0.8,3.7v2.3c0,0.8,0.1,1.5,0.2,2.1s0.4,1.1,0.7,1.5v0.4h-2.1
			c-0.3-0.4-0.6-1-0.7-1.7c-0.1-0.7-0.2-1.5-0.2-2.3v-2.3c0-1.5-0.4-2.7-1.1-3.6c-0.8-0.9-1.8-1.3-3.1-1.3H192.8z M192.8,691.6h4.8
			c1.7,0,3-0.4,3.8-1.3c0.8-0.9,1.2-2.1,1.2-3.6c0-1.6-0.4-2.9-1.2-3.7c-0.8-0.9-2-1.3-3.6-1.3h-5V691.6z"/>
		<path class="st0" d="M212.4,704.5h-2v-24.7h2V704.5z"/>
		<path class="st0" d="M229.6,697.6h-9l-2.1,6.8h-2.1l7.8-24.7h1.8l7.7,24.7h-2.1L229.6,697.6z M221.2,695.8h7.9l-3.9-12.7h-0.1
			L221.2,695.8z"/>
		<path class="st0" d="M250.6,692.9h0.1l6-13.1h2.3l-7.3,15.6v9h-2v-9.1l-7.3-15.5h2.4L250.6,692.9z"/>
		<path class="st0" d="M280.7,697.6h-9l-2.1,6.8h-2.1l7.8-24.7h1.8l7.7,24.7h-2.1L280.7,697.6z M272.3,695.8h7.9l-3.9-12.7h-0.1
			L272.3,695.8z"/>
		<path class="st0" d="M303.4,704.5h-2l-11-20.6l-0.1,0v20.6h-2v-24.7h2l11,20.6l0.1,0v-20.6h2V704.5z"/>
		<path class="st0" d="M322.3,681.6h-6.9v22.9h-2v-22.9h-6.9v-1.8h15.8V681.6z"/>
		<path class="st0" d="M328.1,704.5h-2v-24.7h2V704.5z"/>
		<path class="st0" d="M345.7,693H336v11.5h-2v-24.7h13.2v1.8H336v9.6h9.7V693z"/>
		<path class="st0" d="M360.9,697.6h-9l-2.1,6.8h-2.1l7.8-24.7h1.8l7.7,24.7H363L360.9,697.6z M352.5,695.8h7.9l-3.9-12.7h-0.1
			L352.5,695.8z"/>
		<path class="st0" d="M370.5,702.7h10v1.7h-12v-24.7h2V702.7z"/>
		<path class="st0" d="M395.5,698.4c0-1.3-0.4-2.4-1.2-3.3c-0.8-0.8-2.2-1.6-4.1-2.2c-2.2-0.7-3.9-1.6-5.1-2.7
			c-1.2-1.1-1.7-2.5-1.7-4.4c0-1.9,0.6-3.4,1.9-4.6c1.3-1.2,3-1.8,5-1.8c2.1,0,3.9,0.7,5.2,2.1s1.9,3.1,1.9,5.2l-0.1,0.1h-1.9
			c0-1.6-0.5-3-1.4-4c-0.9-1-2.2-1.6-3.8-1.6c-1.5,0-2.7,0.4-3.6,1.3c-0.9,0.9-1.3,2-1.3,3.3c0,1.2,0.4,2.2,1.2,3.1
			c0.8,0.8,2.2,1.6,4.2,2.2c2.2,0.7,3.9,1.6,5,2.8c1.1,1.2,1.7,2.7,1.7,4.6c0,2-0.7,3.5-2,4.7c-1.3,1.2-3.1,1.7-5.2,1.7
			c-2.1,0-3.9-0.6-5.4-1.9c-1.5-1.2-2.3-3-2.2-5.4l0-0.1h1.9c0,1.9,0.6,3.4,1.7,4.3c1.1,0.9,2.4,1.4,4,1.4c1.5,0,2.8-0.4,3.7-1.3
			S395.5,699.9,395.5,698.4z"/>
		<path class="st0" d="M404,704.5h-2v-24.7h2V704.5z"/>
		<path class="st0" d="M421.7,693h-9.7v11.5h-2v-24.7h13.2v1.8h-11.2v9.6h9.7V693z"/>
		<path class="st0" d="M429.2,704.5h-2v-24.7h2V704.5z"/>
		<path class="st0" d="M448.5,697.3l0.1,0.1c0,2.4-0.7,4.2-1.9,5.5c-1.2,1.3-3,1.9-5.1,1.9c-2.3,0-4.1-0.8-5.4-2.4
			c-1.3-1.6-2-3.9-2-6.9v-6.8c0-2.9,0.7-5.2,2-6.8c1.3-1.6,3.1-2.4,5.4-2.4c2.2,0,3.9,0.6,5.1,1.9s1.9,3.1,1.9,5.6l-0.1,0.1h-1.9
			c-0.1-2-0.5-3.4-1.4-4.3c-0.8-0.9-2.1-1.4-3.7-1.4c-1.7,0-3,0.6-4,1.9c-0.9,1.3-1.4,3.1-1.4,5.5v6.9c0,2.5,0.5,4.3,1.4,5.6
			c0.9,1.3,2.3,1.9,4,1.9c1.6,0,2.9-0.5,3.7-1.4s1.3-2.4,1.4-4.4H448.5z"/>
		<path class="st0" d="M464,697.6h-9l-2.1,6.8h-2.1l7.8-24.7h1.8l7.7,24.7h-2.1L464,697.6z M455.6,695.8h7.9l-3.9-12.7h-0.1
			L455.6,695.8z"/>
		<path class="st0" d="M484.8,697.3l0.1,0.1c0,2.4-0.7,4.2-1.9,5.5c-1.2,1.3-3,1.9-5.1,1.9c-2.3,0-4.1-0.8-5.4-2.4
			c-1.3-1.6-2-3.9-2-6.9v-6.8c0-2.9,0.7-5.2,2-6.8c1.3-1.6,3.1-2.4,5.4-2.4c2.2,0,3.9,0.6,5.1,1.9s1.9,3.1,1.9,5.6l-0.1,0.1H483
			c-0.1-2-0.5-3.4-1.4-4.3c-0.8-0.9-2.1-1.4-3.7-1.4c-1.7,0-3,0.6-4,1.9c-0.9,1.3-1.4,3.1-1.4,5.5v6.9c0,2.5,0.5,4.3,1.4,5.6
			c0.9,1.3,2.3,1.9,4,1.9c1.6,0,2.9-0.5,3.7-1.4s1.3-2.4,1.4-4.4H484.8z"/>
		<path class="st0" d="M491.7,704.5h-2v-24.7h2V704.5z"/>
		<path class="st0" d="M512,695.6c0,3-0.7,5.3-2.1,6.8c-1.4,1.6-3.3,2.4-5.7,2.4c-2.4,0-4.3-0.8-5.6-2.4c-1.4-1.6-2-3.9-2-6.8v-6.9
			c0-3,0.7-5.3,2-6.9s3.2-2.4,5.6-2.4c2.4,0,4.3,0.8,5.7,2.4c1.4,1.6,2.1,3.9,2.1,6.9V695.6z M510,688.7c0-2.4-0.5-4.3-1.5-5.5
			c-1-1.2-2.4-1.8-4.3-1.8c-1.8,0-3.2,0.6-4.2,1.8c-1,1.2-1.5,3.1-1.5,5.5v7c0,2.5,0.5,4.3,1.5,5.6c1,1.2,2.4,1.8,4.2,1.8
			c1.9,0,3.3-0.6,4.3-1.8c1-1.2,1.5-3.1,1.5-5.6V688.7z M506.1,673.3h2.5l0,0.1l-3.7,4.4l-1.7,0L506.1,673.3z"/>
		<path class="st0" d="M531.8,704.5h-2l-11-20.6l-0.1,0v20.6h-2v-24.7h2l11,20.6l0.1,0v-20.6h2V704.5z"/>
	</g>
</g>
<g>
	<g>
		<path class="st1" d="M78.8,625.9H55.4l-4.7,31.9H28.9l23.8-143.9h29.2l23.8,143.9H83.5L78.8,625.9z M75.9,604.9l-8.8-60.2
			l-8.8,60.2H75.9z"/>
		<path class="st1" d="M168.6,558.6v-12.1c0-9-5.1-14.2-13.2-14.2c-8,0-13.2,5.1-13.2,14.2V625c0,9,5.1,14.2,13.2,14.2
			c8,0,13.2-5.1,13.2-14.2v-25.5h-13.2V579h34.9v46c0,20.8-14,34.7-34.9,34.7c-21,0-34.9-14-34.9-34.7v-78.5
			c0-20.8,14-34.7,34.9-34.7c21,0,34.9,14,34.9,34.7v12.1H168.6z"/>
		<path class="st1" d="M254.4,625.9h-23.4l-4.7,31.9h-21.8l23.8-143.9h29.2l23.8,143.9h-22.2L254.4,625.9z M251.5,604.9l-8.8-60.2
			l-8.8,60.2H251.5z"/>
		<path class="st1" d="M282.5,513.8H352v20.6h-23.8v123.3h-21.8V534.4h-23.8V513.8z"/>
		<path class="st1" d="M368.9,657.7V513.8h21.8v60.6h25.9v-60.6h21.8v143.9h-21.8V595h-25.9v62.7H368.9z"/>
		<path class="st1" d="M505.1,625.9h-23.4l-4.7,31.9h-21.8L479,513.8h29.2l23.8,143.9h-22.2L505.1,625.9z M502.3,604.9l-8.8-60.2
			l-8.8,60.2H502.3z"/>
	</g>
</g>
<g>
	<path class="st0" d="M317.9,254.5l32.2,74.4H243.5l-62.6,155.6h-21.7l-92.4-74.4h20.5l62.6-155.6H317.9z M294.9,200.5l-13,32.2
		h-124l73.2-181.7L294.9,200.5z M331.5,94.5l168.1,390.1h-21.1l-93.6-74.4h21.7L237.9,17.6L331.5,94.5z"/>
</g>
<g>
	<path class="st2" d="M185.2,741.2c0,2.5-0.5,4.5-1.6,6s-2.6,2.3-4.5,2.3c-1.1,0-2.1-0.3-2.9-0.8c-0.8-0.5-1.5-1.2-2-2.2l-0.2,2.6
		h-1.8v-27.6h2.1v11.1c0.5-0.9,1.2-1.7,2-2.2c0.8-0.5,1.7-0.8,2.8-0.8c1.9,0,3.4,0.8,4.5,2.4c1.1,1.6,1.6,3.7,1.6,6.3V741.2z
		 M183.1,738.3c0-2-0.4-3.7-1.1-4.9s-1.9-1.9-3.3-1.9c-1.1,0-2,0.3-2.7,1c-0.7,0.7-1.2,1.5-1.6,2.6v9.1c0.4,1,0.9,1.8,1.7,2.4
		s1.6,0.9,2.7,0.9c1.5,0,2.6-0.6,3.3-1.7s1.1-2.7,1.1-4.6V738.3z"/>
	<path class="st2" d="M193.7,743.8l0.5,1.9h0.1l4.5-15.8h2.4l-6.8,22.2c-0.4,1.3-1,2.4-1.6,3.3c-0.7,0.9-1.7,1.4-2.9,1.4
		c-0.2,0-0.5,0-0.8-0.1c-0.3-0.1-0.6-0.1-0.7-0.2l0.2-1.8c0.1,0,0.3,0,0.6,0.1c0.3,0,0.5,0,0.6,0c0.7,0,1.3-0.3,1.8-1
		c0.4-0.7,0.8-1.5,1.1-2.5l0.8-2.5l-6.1-18.9h2.4L193.7,743.8z"/>
	<path class="st2" d="M227.6,739.8c0,3.1-0.7,5.5-2.2,7.2c-1.5,1.6-3.5,2.5-6,2.5c-2.5,0-4.4-0.8-5.9-2.5c-1.4-1.6-2.1-4-2.1-7.2
		v-7.2c0-3.1,0.7-5.5,2.1-7.2c1.4-1.7,3.4-2.5,5.9-2.5c2.5,0,4.5,0.8,6,2.5c1.5,1.7,2.2,4.1,2.2,7.2V739.8z M225.5,732.5
		c0-2.6-0.5-4.5-1.6-5.8s-2.6-1.9-4.5-1.9c-1.9,0-3.4,0.6-4.4,1.9s-1.5,3.2-1.5,5.8v7.3c0,2.6,0.5,4.5,1.5,5.8s2.5,1.9,4.4,1.9
		c2,0,3.5-0.6,4.5-1.9s1.6-3.2,1.6-5.8V732.5z"/>
	<path class="st2" d="M234.2,749.1h-2.1v-27.6h2.1V749.1z"/>
	<path class="st2" d="M249.2,749.1c-0.1-0.7-0.2-1.2-0.2-1.6c-0.1-0.4-0.1-0.9-0.1-1.3c-0.6,1-1.3,1.7-2.3,2.4
		c-0.9,0.6-2,0.9-3.1,0.9c-1.6,0-2.8-0.5-3.7-1.5c-0.9-1-1.3-2.3-1.3-4c0-1.8,0.6-3.2,1.9-4.3c1.3-1.1,2.9-1.6,5.1-1.6h3.3v-2.4
		c0-1.4-0.3-2.4-1-3.2c-0.7-0.8-1.6-1.2-2.9-1.2c-1.1,0-2.1,0.4-2.8,1.1s-1.1,1.6-1.1,2.7l-2,0l0-0.1c-0.1-1.4,0.5-2.7,1.6-3.9
		c1.2-1.1,2.6-1.7,4.4-1.7c1.8,0,3.2,0.5,4.3,1.6c1.1,1.1,1.6,2.6,1.6,4.6v9.4c0,0.7,0,1.3,0.1,2c0.1,0.6,0.2,1.3,0.3,1.9H249.2z
		 M243.8,747.5c1.2,0,2.2-0.3,3.1-1c0.9-0.7,1.6-1.5,1.9-2.6v-4.1h-3.4c-1.5,0-2.6,0.4-3.5,1.2s-1.3,1.8-1.3,3c0,1,0.3,1.9,0.8,2.5
		S242.8,747.5,243.8,747.5z"/>
	<path class="st2" d="M263.3,731.8l-1.4-0.1c-1,0-1.8,0.3-2.5,1s-1.1,1.6-1.4,2.8v13.6h-2.1v-19.2h1.9l0.2,3.2c0.4-1.1,1-2,1.8-2.6
		s1.6-0.9,2.6-0.9c0.2,0,0.4,0,0.7,0.1c0.2,0,0.4,0.1,0.5,0.1L263.3,731.8z"/>
	<path class="st2" d="M270.2,725v4.9h3.3v1.8h-3.3v12.4c0,1.2,0.2,2.1,0.5,2.6c0.4,0.5,0.8,0.8,1.4,0.8c0.3,0,0.6,0,0.8-0.1
		c0.3,0,0.6-0.1,0.9-0.2l0.3,1.6c-0.3,0.1-0.7,0.3-1.1,0.3c-0.5,0.1-0.9,0.1-1.4,0.1c-1.1,0-2-0.4-2.7-1.3c-0.6-0.8-1-2.2-1-4v-12.4
		h-2.7v-1.8h2.7V725H270.2z"/>
	<path class="st2" d="M283.8,749.5c-2.1,0-3.8-0.8-5.1-2.3c-1.3-1.6-2-3.5-2-5.9V738c0-2.4,0.7-4.4,2-6c1.3-1.6,2.9-2.4,4.8-2.4
		c2,0,3.6,0.7,4.7,2.1c1.1,1.4,1.7,3.4,1.7,5.8v2.1h-11v1.6c0,1.9,0.4,3.4,1.3,4.6c0.9,1.2,2.1,1.8,3.6,1.8c1.1,0,2-0.2,2.7-0.6
		c0.8-0.4,1.4-0.9,2-1.6l0.9,1.5c-0.6,0.7-1.3,1.3-2.2,1.8C286.2,749.2,285.1,749.5,283.8,749.5z M283.5,731.4
		c-1.3,0-2.4,0.6-3.3,1.8c-0.9,1.2-1.3,2.7-1.3,4.5h8.8v-0.8c0-1.6-0.4-2.9-1.1-3.9C285.8,732,284.8,731.4,283.5,731.4z"/>
	<path class="st2" d="M296.6,723.3l7.2,22.6h0.1l7.2-22.6h2.7v25.8h-2.1v-11.3l0.2-10.5l-0.1,0l-7.3,21.9h-1.4l-7.3-21.8l-0.1,0
		l0.2,10.5v11.3h-2.1v-25.8H296.6z"/>
	<path class="st2" d="M318.2,738.1c0-2.5,0.6-4.5,1.9-6.1c1.3-1.6,3-2.4,5.1-2.4s3.9,0.8,5.1,2.4s1.9,3.6,1.9,6.1v2.8
		c0,2.5-0.6,4.6-1.9,6.2c-1.3,1.6-3,2.4-5.1,2.4c-2.2,0-3.9-0.8-5.2-2.4c-1.3-1.6-1.9-3.6-1.9-6.2V738.1z M320.3,740.9
		c0,1.9,0.4,3.5,1.3,4.8c0.9,1.3,2.1,1.9,3.6,1.9c1.5,0,2.8-0.6,3.6-1.9s1.3-2.9,1.3-4.8v-2.8c0-1.9-0.4-3.5-1.3-4.8
		c-0.9-1.3-2.1-1.9-3.6-1.9c-1.6,0-2.8,0.6-3.6,1.9c-0.8,1.3-1.3,2.9-1.3,4.8V740.9z"/>
	<path class="st2" d="M346.6,746.1c-0.5,1.1-1.2,1.9-2,2.5s-1.8,0.9-2.9,0.9c-1.7,0-3-0.7-4-2c-1-1.4-1.4-3.5-1.4-6.4v-11.1h2.1
		v11.2c0,2.3,0.3,4,0.9,5s1.5,1.5,2.6,1.5c1.2,0,2.2-0.3,3-1s1.3-1.6,1.6-2.7v-14h2.1v19.2h-1.9L346.6,746.1z"/>
	<path class="st2" d="M360.8,731.8l-1.4-0.1c-1,0-1.8,0.3-2.5,1s-1.1,1.6-1.4,2.8v13.6h-2.1v-19.2h1.9l0.2,3.2c0.4-1.1,1-2,1.8-2.6
		s1.6-0.9,2.6-0.9c0.2,0,0.4,0,0.7,0.1c0.2,0,0.4,0.1,0.5,0.1L360.8,731.8z"/>
	<path class="st2" d="M369.9,749.5c-2.1,0-3.8-0.8-5.1-2.3c-1.3-1.6-2-3.5-2-5.9V738c0-2.4,0.7-4.4,2-6c1.3-1.6,2.9-2.4,4.8-2.4
		c2,0,3.6,0.7,4.7,2.1c1.1,1.4,1.7,3.4,1.7,5.8v2.1h-11v1.6c0,1.9,0.4,3.4,1.3,4.6c0.9,1.2,2.1,1.8,3.6,1.8c1.1,0,2-0.2,2.7-0.6
		c0.8-0.4,1.4-0.9,2-1.6l0.9,1.5c-0.6,0.7-1.3,1.3-2.2,1.8C372.3,749.2,371.2,749.5,369.9,749.5z M369.6,731.4
		c-1.3,0-2.4,0.6-3.3,1.8c-0.9,1.2-1.3,2.7-1.3,4.5h8.8v-0.8c0-1.6-0.4-2.9-1.1-3.9C372,732,370.9,731.4,369.6,731.4z"/>
</g>
</svg>
