<?xml version="1.0" encoding="utf-8"?>
<!-- Generator: Adobe Illustrator 23.0.3, SVG Export Plug-In . SVG Version: 6.00 Build 0)  -->
<svg version="1.1" id="Capa_1" xmlns="http://www.w3.org/2000/svg" xmlns:xlink="http://www.w3.org/1999/xlink" x="0px" y="0px"
	 viewBox="0 0 547 771" style="enable-background:new 0 0 547 771;" xml:space="preserve">
<style type="text/css">
	.st0{fill:#3F88FB;}
	.st1{fill:#4D4D4D;}
</style>
<g>
	<g>
		<path class="st0" d="M41.2,697.6h-9l-2.1,6.8H28l7.8-24.7h1.8l7.7,24.7h-2.1L41.2,697.6z M32.8,695.8h7.9l-3.9-12.7h-0.1
			L32.8,695.8z"/>
		<path class="st0" d="M64,704.5h-2l-11-20.6h-0.1v20.6h-2v-24.7h2l11,20.6H62v-20.6h2V704.5z"/>
		<path class="st0" d="M82.8,681.6h-6.9v22.9h-2v-22.9H67v-1.8h15.8V681.6z"/>
		<path class="st0" d="M88.6,704.5h-2v-24.7h2V704.5z"/>
		<path class="st0" d="M96.5,694.3v10.2h-2v-24.7h7.3c2.2,0,3.8,0.7,5,2s1.8,3.1,1.8,5.2c0,2.2-0.6,3.9-1.8,5.3c-1.2,1.3-2.9,2-5,2
			H96.5z M96.5,692.5h5.3c1.6,0,2.8-0.5,3.6-1.5c0.8-1,1.2-2.3,1.2-3.9c0-1.6-0.4-2.9-1.2-3.9c-0.8-1-2-1.5-3.6-1.5h-5.3V692.5z"/>
		<path class="st0" d="M115.1,704.5h-2v-24.7h2V704.5z"/>
		<path class="st0" d="M123,693.3v11.2h-2v-24.6h7.1c2.2,0,3.9,0.6,5.1,1.7s1.8,2.9,1.8,5.1c0,1.3-0.3,2.5-0.9,3.5
			c-0.6,1-1.5,1.8-2.6,2.3c1.3,0.4,2.2,1.1,2.7,2.1s0.8,2.2,0.8,3.7v2.3c0,0.8,0.1,1.5,0.2,2.1s0.4,1.1,0.7,1.5v0.4h-2.1
			c-0.3-0.4-0.6-1-0.7-1.7c-0.1-0.7-0.2-1.5-0.2-2.3v-2.3c0-1.5-0.4-2.7-1.1-3.6c-0.8-0.9-1.8-1.3-3.1-1.3H123V693.3z M123,691.6
			h4.8c1.7,0,3-0.4,3.8-1.3c0.8-0.9,1.2-2.1,1.2-3.6c0-1.6-0.4-2.9-1.2-3.7c-0.8-0.9-2-1.3-3.6-1.3h-5V691.6z"/>
		<path class="st0" d="M151.2,697.6h-9l-2.1,6.8H138l7.8-24.7h1.8l7.7,24.7h-2.1L151.2,697.6z M142.8,695.8h7.9l-3.9-12.7h-0.1
			L142.8,695.8z"/>
		<path class="st0" d="M170.3,681.6h-6.9v22.9h-2v-22.9h-6.9v-1.8h15.8L170.3,681.6L170.3,681.6z"/>
		<path class="st0" d="M185.6,692.6h-9.7v10.2H187v1.7h-13.2v-24.7h13.1v1.8h-11v9.2h9.7V692.6z"/>
		<path class="st0" d="M192.8,693.3v11.2h-2v-24.6h7.1c2.2,0,3.9,0.6,5.1,1.7s1.8,2.9,1.8,5.1c0,1.3-0.3,2.5-0.9,3.5
			c-0.6,1-1.5,1.8-2.6,2.3c1.3,0.4,2.2,1.1,2.7,2.1s0.8,2.2,0.8,3.7v2.3c0,0.8,0.1,1.5,0.2,2.1s0.4,1.1,0.7,1.5v0.4h-2.1
			c-0.3-0.4-0.6-1-0.7-1.7c-0.1-0.7-0.2-1.5-0.2-2.3v-2.3c0-1.5-0.4-2.7-1.1-3.6c-0.8-0.9-1.8-1.3-3.1-1.3h-5.7V693.3z M192.8,691.6
			h4.8c1.7,0,3-0.4,3.8-1.3c0.8-0.9,1.2-2.1,1.2-3.6c0-1.6-0.4-2.9-1.2-3.7c-0.8-0.9-2-1.3-3.6-1.3h-5V691.6z"/>
		<path class="st0" d="M212.4,704.5h-2v-24.7h2V704.5z"/>
		<path class="st0" d="M229.6,697.6h-9l-2.1,6.8h-2.1l7.8-24.7h1.8l7.7,24.7h-2.1L229.6,697.6z M221.2,695.8h7.9l-3.9-12.7h-0.1
			L221.2,695.8z"/>
		<path class="st0" d="M250.6,692.9h0.1l6-13.1h2.3l-7.3,15.6v9h-2v-9.1l-7.3-15.5h2.4L250.6,692.9z"/>
		<path class="st0" d="M280.7,697.6h-9l-2.1,6.8h-2.1l7.8-24.7h1.8l7.7,24.7h-2.1L280.7,697.6z M272.3,695.8h7.9l-3.9-12.7h-0.1
			L272.3,695.8z"/>
		<path class="st0" d="M303.4,704.5h-2l-11-20.6h-0.1v20.6h-2v-24.7h2l11,20.6h0.1v-20.6h2V704.5z"/>
		<path class="st0" d="M322.3,681.6h-6.9v22.9h-2v-22.9h-6.9v-1.8h15.8V681.6z"/>
		<path class="st0" d="M328.1,704.5h-2v-24.7h2V704.5z"/>
		<path class="st0" d="M345.7,693H336v11.5h-2v-24.7h13.2v1.8H336v9.6h9.7V693z"/>
		<path class="st0" d="M360.9,697.6h-9l-2.1,6.8h-2.1l7.8-24.7h1.8l7.7,24.7h-2L360.9,697.6z M352.5,695.8h7.9l-3.9-12.7h-0.1
			L352.5,695.8z"/>
		<path class="st0" d="M370.5,702.7h10v1.7h-12v-24.7h2V702.7z"/>
		<path class="st0" d="M395.5,698.4c0-1.3-0.4-2.4-1.2-3.3c-0.8-0.8-2.2-1.6-4.1-2.2c-2.2-0.7-3.9-1.6-5.1-2.7
			c-1.2-1.1-1.7-2.5-1.7-4.4s0.6-3.4,1.9-4.6c1.3-1.2,3-1.8,5-1.8c2.1,0,3.9,0.7,5.2,2.1s1.9,3.1,1.9,5.2l-0.1,0.1h-1.9
			c0-1.6-0.5-3-1.4-4s-2.2-1.6-3.8-1.6c-1.5,0-2.7,0.4-3.6,1.3c-0.9,0.9-1.3,2-1.3,3.3c0,1.2,0.4,2.2,1.2,3.1
			c0.8,0.8,2.2,1.6,4.2,2.2c2.2,0.7,3.9,1.6,5,2.8s1.7,2.7,1.7,4.6c0,2-0.7,3.5-2,4.7s-3.1,1.7-5.2,1.7s-3.9-0.6-5.4-1.9
			c-1.5-1.2-2.3-3-2.2-5.4v-0.1h1.9c0,1.9,0.6,3.4,1.7,4.3c1.1,0.9,2.4,1.4,4,1.4c1.5,0,2.8-0.4,3.7-1.3S395.5,699.9,395.5,698.4z"
			/>
		<path class="st0" d="M404,704.5h-2v-24.7h2V704.5z"/>
		<path class="st0" d="M421.7,693H412v11.5h-2v-24.7h13.2v1.8H412v9.6h9.7V693z"/>
		<path class="st0" d="M429.2,704.5h-2v-24.7h2V704.5z"/>
		<path class="st0" d="M448.5,697.3l0.1,0.1c0,2.4-0.7,4.2-1.9,5.5c-1.2,1.3-3,1.9-5.1,1.9c-2.3,0-4.1-0.8-5.4-2.4
			c-1.3-1.6-2-3.9-2-6.9v-6.8c0-2.9,0.7-5.2,2-6.8s3.1-2.4,5.4-2.4c2.2,0,3.9,0.6,5.1,1.9s1.9,3.1,1.9,5.6l-0.1,0.1h-1.9
			c-0.1-2-0.5-3.4-1.4-4.3c-0.8-0.9-2.1-1.4-3.7-1.4c-1.7,0-3,0.6-4,1.9c-0.9,1.3-1.4,3.1-1.4,5.5v6.9c0,2.5,0.5,4.3,1.4,5.6
			s2.3,1.9,4,1.9c1.6,0,2.9-0.5,3.7-1.4s1.3-2.4,1.4-4.4L448.5,697.3L448.5,697.3z"/>
		<path class="st0" d="M464,697.6h-9l-2.1,6.8h-2.1l7.8-24.7h1.8l7.7,24.7H466L464,697.6z M455.6,695.8h7.9l-3.9-12.7h-0.1
			L455.6,695.8z"/>
		<path class="st0" d="M484.8,697.3l0.1,0.1c0,2.4-0.7,4.2-1.9,5.5c-1.2,1.3-3,1.9-5.1,1.9c-2.3,0-4.1-0.8-5.4-2.4
			c-1.3-1.6-2-3.9-2-6.9v-6.8c0-2.9,0.7-5.2,2-6.8s3.1-2.4,5.4-2.4c2.2,0,3.9,0.6,5.1,1.9s1.9,3.1,1.9,5.6l-0.1,0.1H483
			c-0.1-2-0.5-3.4-1.4-4.3c-0.8-0.9-2.1-1.4-3.7-1.4c-1.7,0-3,0.6-4,1.9c-0.9,1.3-1.4,3.1-1.4,5.5v6.9c0,2.5,0.5,4.3,1.4,5.6
			s2.3,1.9,4,1.9c1.6,0,2.9-0.5,3.7-1.4s1.3-2.4,1.4-4.4L484.8,697.3L484.8,697.3z"/>
		<path class="st0" d="M491.7,704.5h-2v-24.7h2V704.5z"/>
		<path class="st0" d="M512,695.6c0,3-0.7,5.3-2.1,6.8c-1.4,1.6-3.3,2.4-5.7,2.4c-2.4,0-4.3-0.8-5.6-2.4c-1.4-1.6-2-3.9-2-6.8v-6.9
			c0-3,0.7-5.3,2-6.9s3.2-2.4,5.6-2.4s4.3,0.8,5.7,2.4c1.4,1.6,2.1,3.9,2.1,6.9V695.6z M510,688.7c0-2.4-0.5-4.3-1.5-5.5
			s-2.4-1.8-4.3-1.8c-1.8,0-3.2,0.6-4.2,1.8s-1.5,3.1-1.5,5.5v7c0,2.5,0.5,4.3,1.5,5.6c1,1.2,2.4,1.8,4.2,1.8c1.9,0,3.3-0.6,4.3-1.8
			s1.5-3.1,1.5-5.6V688.7z M506.1,673.3h2.5v0.1l-3.7,4.4h-1.7L506.1,673.3z"/>
		<path class="st0" d="M531.8,704.5h-2l-11-20.6h-0.1v20.6h-2v-24.7h2l11,20.6h0.1v-20.6h2V704.5z"/>
	</g>
</g>
<g>
	<g>
		<path class="st1" d="M78.8,625.9H55.4l-4.7,31.9H28.9l23.8-143.9h29.2l23.8,143.9H83.5L78.8,625.9z M75.9,604.9l-8.8-60.2
			l-8.8,60.2H75.9z"/>
		<path class="st1" d="M168.6,558.6v-12.1c0-9-5.1-14.2-13.2-14.2c-8,0-13.2,5.1-13.2,14.2V625c0,9,5.1,14.2,13.2,14.2
			c8,0,13.2-5.1,13.2-14.2v-25.5h-13.2V579h34.9v46c0,20.8-14,34.7-34.9,34.7c-21,0-34.9-14-34.9-34.7v-78.5
			c0-20.8,14-34.7,34.9-34.7c21,0,34.9,14,34.9,34.7v12.1H168.6z"/>
		<path class="st1" d="M254.4,625.9H231l-4.7,31.9h-21.8l23.8-143.9h29.2l23.8,143.9h-22.2L254.4,625.9z M251.5,604.9l-8.8-60.2
			l-8.8,60.2H251.5z"/>
		<path class="st1" d="M282.5,513.8H352v20.6h-23.8v123.3h-21.8V534.4h-23.8v-20.6H282.5z"/>
		<path class="st1" d="M368.9,657.7V513.8h21.8v60.6h25.9v-60.6h21.8v143.9h-21.8V595h-25.9v62.7H368.9z"/>
		<path class="st1" d="M505.1,625.9h-23.4l-4.7,31.9h-21.8l23.8-144h29.2L532,657.7h-22.2L505.1,625.9z M502.3,604.9l-8.8-60.2
			l-8.8,60.2H502.3z"/>
	</g>
</g>
<g>
	<path class="st0" d="M317.9,254.5l32.2,74.4H243.5l-62.6,155.6h-21.7l-92.4-74.4h20.5l62.6-155.6H317.9z M294.9,200.5l-13,32.2
		h-124L231.1,51L294.9,200.5z M331.5,94.5l168.1,390.1h-21.1l-93.6-74.4h21.7L237.9,17.6L331.5,94.5z"/>
</g>
</svg>
