<svg xmlns="http://www.w3.org/2000/svg" viewBox="0 0 100 75"><defs><style>.cls-1{fill:#fff;}</style></defs><title>Enviar fotos</title><g id="Capa_2" data-name="Capa 2"><g id="Capa_1-2" data-name="Capa 1"><path class="cls-1" d="M9.38,75A9.38,9.38,0,0,1,0,65.63V9.37A9.38,9.38,0,0,1,9.38,0H90.62A9.38,9.38,0,0,1,100,9.37V65.63A9.38,9.38,0,0,1,90.62,75Zm1.56-53.13A10.94,10.94,0,1,0,21.88,10.94,10.93,10.93,0,0,0,10.94,21.87ZM87.5,62.5V40.63L70.41,23.53a2.36,2.36,0,0,0-3.32,0L40.62,50,29.78,39.16a2.33,2.33,0,0,0-3.31,0l-14,14V62.5Z"/></g></g></svg>