<svg xmlns="http://www.w3.org/2000/svg" viewBox="0 0 69 69"><defs><style>.cls-1{fill:#fff;}</style></defs><title>User</title><g id="Capa_2" data-name="Capa 2"><g id="Capa_1-2" data-name="Capa 1"><path class="cls-1" d="M69,34.5A34.5,34.5,0,1,0,11.2,59.92l0,0,1.11.94.23.17c.59.49,1.21,1,1.84,1.41l.61.44c.67.46,1.36.9,2.06,1.31l.46.27c.77.44,1.56.85,2.36,1.23l.18.08a34.66,34.66,0,0,0,8.34,2.64l.23,0c.91.16,1.83.28,2.76.37l.34,0c.92.07,1.86.12,2.81.12s1.87,0,2.79-.12l.35,0c.92-.08,1.83-.21,2.73-.36l.24,0a34.21,34.21,0,0,0,8.22-2.58l.29-.13c.77-.37,1.53-.76,2.27-1.17l.55-.32c.67-.4,1.34-.81,2-1.26.23-.15.45-.32.68-.49.55-.39,1.1-.8,1.62-1.23l.36-.27,1.14-1,0,0A34.4,34.4,0,0,0,69,34.5Zm-66.49,0a32,32,0,1,1,53.2,23.91,8.5,8.5,0,0,0-1.12-.67L44,52.43a2.78,2.78,0,0,1-1.54-2.5V46.22c.24-.3.51-.65.77-1a25.49,25.49,0,0,0,3.28-6.43,4.55,4.55,0,0,0,2.62-4.13V30.19a4.61,4.61,0,0,0-1.11-3V21.37A10.16,10.16,0,0,0,45.62,14c-2.31-2.63-6-4-11.12-4s-8.81,1.35-11.12,4A10.16,10.16,0,0,0,21,21.37v5.85a4.59,4.59,0,0,0-1.11,3v4.45a4.56,4.56,0,0,0,1.68,3.54,23.55,23.55,0,0,0,3.88,8v3.64A2.8,2.8,0,0,1,24,52.28l-9.93,5.41a9.84,9.84,0,0,0-.94.6A31.91,31.91,0,0,1,2.51,34.5Z"/></g></g></svg>