<?xml version="1.0" encoding="utf-8"?>
<!-- Generator: Adobe Illustrator 24.1.2, SVG Export Plug-In . SVG Version: 6.00 Build 0)  -->
<svg version="1.1" id="Capa_1" xmlns="http://www.w3.org/2000/svg" xmlns:xlink="http://www.w3.org/1999/xlink" x="0px" y="0px"
	 viewBox="0 0 59.4 58.2" style="enable-background:new 0 0 59.4 58.2;" xml:space="preserve">
<style type="text/css">
	.st0{fill:#FFFFFF;}
	.st1{fill:none;stroke:#FFFFFF;stroke-width:0.5;stroke-miterlimit:10;}
</style>
<path class="st0" d="M29.7,2.3C15,2.3,3,14.3,3,29.1s12,26.7,26.7,26.7s26.7-12,26.7-26.7S44.4,2.3,29.7,2.3z M29.7,10.1
	c7.1,0,12.8,5.7,12.8,12.8s-5.7,12.8-12.8,12.8S16.9,30,16.9,23S22.6,10.1,29.7,10.1z M29.7,51.4c-7.3,0-13.7-3.5-17.8-8.9
	c4.5-2.1,10.8-4.4,17.8-4.4c7,0,13.3,2.3,17.8,4.4C43.4,47.8,37,51.4,29.7,51.4z"/>
<circle class="st1" cx="29.7" cy="29.1" r="28.6"/>
</svg>
